<?xml version="1.0" encoding="utf-8"?>
<!-- Generator: Adobe Illustrator 16.0.0, SVG Export Plug-In . SVG Version: 6.00 Build 0)  -->
<!DOCTYPE svg PUBLIC "-//W3C//DTD SVG 1.1//EN" "http://www.w3.org/Graphics/SVG/1.1/DTD/svg11.dtd">
<svg version="1.1" xmlns="http://www.w3.org/2000/svg" xmlns:xlink="http://www.w3.org/1999/xlink" x="0px" y="0px" width="72px"
	 height="72px" viewBox="0 0 72 72" enable-background="new 0 0 72 72" xml:space="preserve">
<g id="waves_fill" display="none">
</g>
<g id="Layer_7">
</g>
<g id="Layer_1">
</g>
<g id="Layer_2">
	<g>
		<path fill="#24E1DB" d="M57.226,14.69l-5.15-1.995c-0.825-0.324-1.815,0.118-2.133,0.939l-1.997,5.15
			c-0.158,0.41-0.147,0.858,0.029,1.261c0.152,0.348,0.428,0.604,0.758,0.775l-7.324,16.367h-3.438
			c1.725-0.957,3.021-2.647,3.679-4.838c0.688-2.29,0.564-4.791-0.337-6.859c-1.688-3.878-10.408-9.196-12.668-9.196
			c-0.168,0-0.312,0.024-0.437,0.076c-1.438,0.589-2.901,7.338-2.91,11.72c-4.049-0.518-10.688,0.111-11.4,1.141
			c-0.182,0.262-0.222,0.642-0.123,1.16c0.309,1.618,2.082,4.854,4.104,6.797h-0.957c-0.276,0-0.5,0.224-0.5,0.5
			c0,7.449,4.009,13.964,9.969,17.553c-0.006,0.029-0.018,0.057-0.018,0.089v3.582c0,0.276,0.224,0.5,0.5,0.5s0.5-0.224,0.5-0.5
			v-3.101c2.854,1.508,6.098,2.372,9.544,2.372s6.69-0.864,9.544-2.373v3.102c0,0.276,0.224,0.5,0.5,0.5s0.5-0.224,0.5-0.5V55.33
			c0-0.032-0.012-0.06-0.018-0.089c5.959-3.589,9.968-10.104,9.968-17.553c0-0.276-0.224-0.5-0.5-0.5h-7.323l4.64-14.221
			c0.133,0.034,0.268,0.058,0.405,0.058c0.675,0,1.292-0.423,1.536-1.053l1.998-5.148C58.494,15.977,58.072,15.02,57.226,14.69z
			 M28.645,17.295c1.667,0,10.149,4.915,11.752,8.595c0.808,1.856,0.915,4.106,0.295,6.174c-0.645,2.147-1.961,3.748-3.71,4.508
			c-0.105,0.046-0.212,0.088-0.319,0.126l-1.371-4.432c-0.081-0.264-0.359-0.414-0.625-0.33c-0.215,0.066-0.353,0.265-0.353,0.479
			c0,0.048,0.007,0.098,0.022,0.146l1.358,4.395c-1.214,0.215-2.551,0.057-3.848-0.452c0.448-2.715-0.947-5.857-3.368-7.464
			c-0.503-0.335-1.237-0.601-2.186-0.79C26.248,23.474,27.936,17.73,28.645,17.295z M14.694,29.831
			c0.612-0.529,6.903-1.365,11.024-0.671c1.009,0.169,1.751,0.408,2.207,0.712c2.178,1.445,3.437,4.44,2.863,6.816
			c0,0,0,0.001,0,0.002c-0.017,0.068-0.027,0.131-0.033,0.188c-0.288,0.07-0.472,0.124-0.596,0.174L27.1,37.091
			c-0.031-0.051-0.068-0.1-0.118-0.139l-2.807-2.224c-0.216-0.172-0.531-0.137-0.702,0.081c-0.172,0.217-0.136,0.531,0.081,0.702
			l2.017,1.599l-6.148,0.076C16.779,35.33,14.449,30.567,14.694,29.831z M36.917,57.184c-10.582,0-19.223-8.476-19.489-18.995h1.843
			c0.002,0,0.004,0,0.006,0h22.456h7.166h7.507C56.139,48.708,47.499,57.184,36.917,57.184z M48.535,37.188h-6.031l7.138-15.95
			l3.608,1.503L48.535,37.188z M57.234,16.463l-1.997,5.148c-0.126,0.32-0.508,0.497-0.838,0.37l-5.151-1.996
			c-0.161-0.062-0.288-0.184-0.358-0.342c-0.069-0.159-0.073-0.336-0.012-0.497l1.996-5.149c0.097-0.248,0.339-0.414,0.604-0.414
			c0.079,0,0.158,0.015,0.234,0.044l5.15,1.995C57.197,15.752,57.363,16.129,57.234,16.463z"/>
	</g>
</g>
<g id="Layer_6" display="none">
</g>
<g id="Enter_your_city">
</g>
<g id="De">
</g>
<g id="Dehradun">
</g>
</svg>
