<svg id="Layer_1" data-name="Layer 1" xmlns="http://www.w3.org/2000/svg" height="40px" width="40px" viewBox="0 0 40 40"><defs><style>.cls-1{fill:#1ae5e5;}</style></defs><title>Googleplus_icon</title><path class="cls-1" d="M17.08,12.94a6.46,6.46,0,0,1,4.71,1.83c-0.62.67-1.23,1.35-1.88,2a0.11,0.11,0,0,1-.08,0,1.26,1.26,0,0,1-.51-0.18,4.26,4.26,0,0,0-2.23-.64A4,4,0,0,0,13.58,18a4.05,4.05,0,0,0,6.88,4.26c0.14-.2.24-0.43,0.43-0.77H19l-1.35,0H17.55a0.5,0.5,0,0,1-.6-0.63c0-.65,0-1.3,0-1.94a0.41,0.41,0,0,1,.48-0.49h6.16c0.59,0,.52.46,0.55,0.8a7.09,7.09,0,0,1-7,7.81,7.2,7.2,0,0,1-3.84-1.12A7.06,7.06,0,0,1,16.12,13a6.91,6.91,0,0,1,1-.07m0-.83a7.76,7.76,0,0,0-1.08.07,7.89,7.89,0,0,0-3.14,14.47,8,8,0,0,0,4.28,1.24A7.92,7.92,0,0,0,25,19.19v-0.1a1.31,1.31,0,0,0-1.37-1.46H17.44A1.22,1.22,0,0,0,16.13,19v0.09c0,0.62,0,1.21,0,1.79a1.31,1.31,0,0,0,1.43,1.51h0.08l1.33,0h0.37a3.22,3.22,0,0,1-5-3.91,3.17,3.17,0,0,1,2.8-1.65,3.44,3.44,0,0,1,1.8.52,2.07,2.07,0,0,0,.94.3,0.93,0.93,0,0,0,.66-0.26c0.52-.51,1-1,1.49-1.56l0.41-.45a0.83,0.83,0,0,0,0-1.11,7.26,7.26,0,0,0-5.34-2.12h0Z"/><path class="cls-1" d="M28.42,16.26h0c1.63,0,1.33-.19,1.36,1.29,0,0.37,0,.73,0,1.13h2a0.39,0.39,0,0,1,.45.48c0,1.32.1,1.45-.5,1.45H29.82c0,0.64,0,1.22,0,1.79s-0.1.63-.55,0.63h0c-1.57,0-1.31.19-1.34-1.32,0-.33,0-0.66,0-1.1H26A0.46,0.46,0,0,1,25.47,20c0-1.25-.1-1.35.56-1.35h1.86c0-.64,0-1.24,0-1.84a0.46,0.46,0,0,1,.54-0.58m0-.83a1.35,1.35,0,0,0-1,.38,1.41,1.41,0,0,0-.34,1.06c0,0.32,0,.64,0,1H26c-1.37,0-1.38,1-1.38,1.65,0,0.14,0,.31,0,0.51A1.43,1.43,0,0,0,25,21.07a1.32,1.32,0,0,0,1,.37h1.07c0,0.1,0,.2,0,0.29s0,0.38,0,.52a1.59,1.59,0,0,0,.33,1.26,1.66,1.66,0,0,0,1.3.35h0.58a1.36,1.36,0,0,0,1-.39,1.48,1.48,0,0,0,.35-1.11c0-.3,0-0.61,0-0.93h1.1a1.3,1.3,0,0,0,1-.33,1.75,1.75,0,0,0,.34-1.38c0-.16,0-0.34,0-0.56a1.29,1.29,0,0,0-.34-1,1.26,1.26,0,0,0-.93-0.35H30.65c0-.11,0-0.21,0-0.32s0-.41,0-0.55a1.51,1.51,0,0,0-.32-1.2A1.65,1.65,0,0,0,29,15.44H28.42Z"/><path class="cls-1" d="M20,39.5A19.5,19.5,0,1,1,39.5,20,19.52,19.52,0,0,1,20,39.5Zm0-38A18.55,18.55,0,1,0,38.55,20,18.57,18.57,0,0,0,20,1.45Z"/></svg>