<svg id="Layer_1" data-name="Layer 1" xmlns="http://www.w3.org/2000/svg" height="40px" width="40px" viewBox="0 0 40 40"><defs><style>.cls-1{fill:#1ae5e5;}</style></defs><title>twitr_icon</title><path class="cls-1" d="M23.65,12.32a3.84,3.84,0,0,1,.76.07,4,4,0,0,1,2.06,1.14,8.2,8.2,0,0,0,2.46-.93,3.8,3.8,0,0,1-1.68,2.12,7.84,7.84,0,0,0,2.2-.59,8,8,0,0,1-1.93,2,11.3,11.3,0,0,1-1.59,6.22,10.73,10.73,0,0,1-9.33,5.3H16.26a10.83,10.83,0,0,1-5.44-1.58,0.8,0.8,0,0,1-.27-0.19,8.52,8.52,0,0,0,1,.06,7.64,7.64,0,0,0,4.74-1.63,3.87,3.87,0,0,1-3.6-2.71,3.18,3.18,0,0,0,.73.08,3.7,3.7,0,0,0,1-.12,3.91,3.91,0,0,1-2.14-1.31,3.75,3.75,0,0,1-.91-2.52h0a0.49,0.49,0,0,1,.14.07,4,4,0,0,0,1.55.4,3.9,3.9,0,0,1-1.64-3.79A4.19,4.19,0,0,1,11.85,13c0.26,0.24.47,0.53,0.72,0.78a10.93,10.93,0,0,0,7.25,3.26,3.92,3.92,0,0,1,1.92-4.28,4,4,0,0,1,1.9-.47m5.28,0.28h0m-5.29-1.24a4.91,4.91,0,0,0-2.37.59,4.83,4.83,0,0,0-2.49,4,9.89,9.89,0,0,1-5.54-2.85L13,12.83a6.32,6.32,0,0,0-.47-0.5,1,1,0,0,0-.65-0.26H11.7a1,1,0,0,0-.69.49,5.09,5.09,0,0,0-.58,1.69,4.83,4.83,0,0,0,.35,2.67,1,1,0,0,0-.27.27,1,1,0,0,0-.16.53,4.7,4.7,0,0,0,1.15,3.15l0.3,0.32a1,1,0,0,0,0,.68,4.76,4.76,0,0,0,1.6,2.34,4.92,4.92,0,0,0,.51.36,6.67,6.67,0,0,1-2.34.41,7.6,7.6,0,0,1-.85,0H10.55a1,1,0,0,0-.78,1.51,1.47,1.47,0,0,0,.52.44,11.77,11.77,0,0,0,5.94,1.73h0.35a11.69,11.69,0,0,0,10.16-5.76,12.22,12.22,0,0,0,1.73-6.25,8.66,8.66,0,0,0,1.77-2,1,1,0,0,0-.53-1.44L29.81,13a1,1,0,0,0-.88-1.33H28.88a1,1,0,0,0-.42.12,8,8,0,0,1-1.72.72,4.87,4.87,0,0,0-2.15-1,4.81,4.81,0,0,0-.95-0.09h0Z"/><path class="cls-1" d="M20,39.63A19.63,19.63,0,1,1,39.63,20,19.65,19.65,0,0,1,20,39.63Zm0-38.3A18.67,18.67,0,1,0,38.67,20,18.69,18.69,0,0,0,20,1.33Z"/></svg>