<svg id="Layer_1" data-name="Layer 1" xmlns="http://www.w3.org/2000/svg" height="40px" width="40px" viewBox="0 0 40 40"><defs><style>.cls-1{fill:#1ae5e5;}</style></defs><title>FB_icon</title><path class="cls-1" d="M22.26,10.56c0.81,0,1.66,0,2.48,0H25c0,1.07,0,2.18,0,3.23H24.65l-1,0-0.39,0a1.36,1.36,0,0,0-1.12.78A4.31,4.31,0,0,0,22,16.3h1.85l1.17,0c0,1,0,2.14,0,3.21H22v9.92H17.73v-9.9l-1.09,0H15V16.3h2.7c0-.85,0-1.61,0-2.3a3.62,3.62,0,0,1,.61-1.72,3.79,3.79,0,0,1,3-1.71l0.88,0m2.73,0h0m-2.74-1-0.93,0a4.78,4.78,0,0,0-3.78,2.14,4.58,4.58,0,0,0-.76,2.17c0,0.42,0,.84,0,1.28v0.14H15a1,1,0,0,0-1,1v3.23a1,1,0,0,0,1,1h1.78v9a1,1,0,0,0,1,1H22a1,1,0,0,0,1-1v-9h2a1,1,0,0,0,1-1c0-.39,0-0.78,0-1.17,0-.67,0-1.37,0-2a1,1,0,0,0-.93-1l-1.21,0H22.93A1,1,0,0,1,23,15a0.4,0.4,0,0,1,.33-0.23H25a1,1,0,0,0,.91-0.93c0-.66,0-1.34,0-2,0-.4,0-0.79,0-1.18t0-.08a1,1,0,0,0-1-1H24.74l-1.22,0-1.25,0h0Z"/><path class="cls-1" d="M20,39.74A19.74,19.74,0,1,1,39.74,20,19.76,19.76,0,0,1,20,39.74ZM20,1.22A18.78,18.78,0,1,0,38.78,20,18.8,18.8,0,0,0,20,1.22Z"/></svg>