<svg id="Layer_1" data-name="Layer 1" xmlns="http://www.w3.org/2000/svg" width="102px" height="30px" viewBox="0 0 102 30"><defs><style>.cls-1{fill:#fff;}.cls-2{fill:none;}</style></defs><title>1mg-icon</title><path class="cls-1" d="M73.45,18.44a1,1,0,1,1,1,1A1,1,0,0,1,73.45,18.44Z"/><path class="cls-1" d="M76.62,16.24a3.15,3.15,0,0,1,3.08-3.17c1.53,0,2.64,1,2.64,1.94a0.86,0.86,0,0,1-.87.91,0.77,0.77,0,0,1-.77-0.77A0.66,0.66,0,0,1,81,14.64a1.46,1.46,0,0,0-1.26-.56,2,2,0,0,0-1.84,2.18,2.08,2.08,0,0,0,2.2,2.13,4,4,0,0,0,2.11-.66l-0.12,1.12a3.87,3.87,0,0,1-2.11.59A3.15,3.15,0,0,1,76.62,16.24Z"/><path class="cls-1" d="M83.43,16.27a3.21,3.21,0,1,1,3.21,3.18A3.1,3.1,0,0,1,83.43,16.27Zm5.15,0a2,2,0,1,0-3.9,0A2,2,0,1,0,88.58,16.27Z"/><path class="cls-1" d="M90.94,18.31h1V14.24h-1V13.18h2.13v1.07a3,3,0,0,1,2.17-1.18,1.71,1.71,0,0,1,1.5.7,1.55,1.55,0,0,1,.19.43,3.27,3.27,0,0,1,2.17-1.13,1.73,1.73,0,0,1,1.71.88,2.72,2.72,0,0,1,.24,1.17v3.18h1v1H98.9v-1h0.91V15.4a1.88,1.88,0,0,0-.11-0.7,0.83,0.83,0,0,0-.87-0.5,2.64,2.64,0,0,0-1.75.9v3.21H98v1h-3v-1h0.91V15.4a2,2,0,0,0-.1-0.7,0.84,0.84,0,0,0-.87-0.5,2.66,2.66,0,0,0-1.77.91v3.2H94v1H90.94v-1Z"/><path class="cls-1" d="M0,16H4.57V5.18l-3.83.59V1.68L9.43,0.49V16H13v4H0V16Z"/><path class="cls-1" d="M15.12,16H18V4.59h-2.9V0.49H22.7V3.57c1.52-1.65,3.66-3.43,6.55-3.43a5.55,5.55,0,0,1,4.64,2.09,5.8,5.8,0,0,1,.62,1.11C36.34,1.56,38.52.14,41,.14c2.71,0,4.59,1,5.57,2.8a7.64,7.64,0,0,1,.8,3.66V16h2.9v4H39.9V16h2.62V7.76a4.43,4.43,0,0,0-.3-1.82A2.29,2.29,0,0,0,39.9,4.55a7.88,7.88,0,0,0-4.76,2.18V16h2.62v4H27.6V16h2.66V7.76A4.33,4.33,0,0,0,30,5.93a2.26,2.26,0,0,0-2.32-1.38,7.91,7.91,0,0,0-4.77,2.18V16h2.58v4H15.12V16Z"/><path class="cls-1" d="M71.56,20a9.06,9.06,0,0,1-1.83,5.89c-1.6,2-4.14,3-7.3,3-3.39,0-6.28-1.07-7.66-2.45a3.45,3.45,0,0,1-1.07-2.54,2.66,2.66,0,0,1,2.63-2.72A2.59,2.59,0,0,1,59,23.75a3.44,3.44,0,0,1-.09.76,9.08,9.08,0,0,0,2.9.48,4.61,4.61,0,0,0,4-1.69,5.61,5.61,0,0,0,.9-3.38V17.11a7.35,7.35,0,0,1-5.62,2.5c-4.95,0-8.91-3.79-8.91-9.58,0-5.57,4.05-9.89,9.13-9.89a8.24,8.24,0,0,1,5.57,2.09V0.49h7.57V4.59H71.56V20ZM57.17,10c0,3.57,2.18,5.52,5.17,5.52a6.43,6.43,0,0,0,4.37-1.92V5.85a7,7,0,0,0-4.37-1.52C59.35,4.32,57.17,6.28,57.17,10Z"/><rect class="cls-2" y="-3.74" width="131.65" height="49.58"/></svg>