<svg id="Layer_1" data-name="Layer 1" xmlns="http://www.w3.org/2000/svg" height="40px" width="40px" viewBox="0 0 40 40"><defs><style>.cls-1{fill:#1ae5e5;}</style></defs><title>in_icon</title><path class="cls-1" d="M16.09,15.36v9.47h-3V15.42s0-.06,0-0.07h2.93m0-1H13a1,1,0,0,0-.81,1v9.39a1,1,0,0,0,1,1h3a1,1,0,0,0,1-1V15.36a1,1,0,0,0-1-1h0Z"/><path class="cls-1" d="M14.63,10.67a1.66,1.66,0,0,1,1.7,1.71A1.75,1.75,0,0,1,14.6,14.1a1.68,1.68,0,0,1-1-.3,1.79,1.79,0,0,1-.73-1.7,1.62,1.62,0,0,1,1.45-1.41l0.26,0m0-1-0.38,0a2.64,2.64,0,0,0-.86.25A2.69,2.69,0,0,0,12,12a2.75,2.75,0,0,0,1.14,2.6A2.64,2.64,0,0,0,14.6,15a2.69,2.69,0,0,0,2.68-2.66,2.61,2.61,0,0,0-2.65-2.67h0Z"/><path class="cls-1" d="M23.58,15.11a3.16,3.16,0,0,1,3,1.43,8.21,8.21,0,0,1,.55,3.88v4.41h-3V21.44c0-1.44.18-3.08-.77-3.57a1.63,1.63,0,0,0-.74-0.16,2,2,0,0,0-.8.16c-1.07.47-1,2-1,3.63v3.33H17.94V15.36h2.82v1.3A1.37,1.37,0,0,0,21,16.35a3.18,3.18,0,0,1,2.56-1.24h0m0-1h0a4.35,4.35,0,0,0-2.08.54,1,1,0,0,0-.69-0.3H17.94a1,1,0,0,0-1,1v9.47a1,1,0,0,0,1,1h2.93a1,1,0,0,0,1-1V21.09c0-1.07,0-2.17.4-2.36a1.11,1.11,0,0,1,.42-0.08,0.68,0.68,0,0,1,.3.05c0.3,0.15.27,1.42,0.26,2.11,0,0.21,0,.41,0,0.61v3.39a1,1,0,0,0,1,1h3a1,1,0,0,0,1-1V20.37a8.71,8.71,0,0,0-.68-4.29,4,4,0,0,0-3.8-1.91h0Z"/><path class="cls-1" d="M20,39.5A19.5,19.5,0,1,1,39.5,20,19.52,19.52,0,0,1,20,39.5Zm0-38A18.55,18.55,0,1,0,38.55,20,18.57,18.57,0,0,0,20,1.45Z"/></svg>