<?xml version="1.0" encoding="utf-8"?>
<!-- Generator: Adobe Illustrator 16.0.0, SVG Export Plug-In . SVG Version: 6.00 Build 0)  -->
<!DOCTYPE svg PUBLIC "-//W3C//DTD SVG 1.1//EN" "http://www.w3.org/Graphics/SVG/1.1/DTD/svg11.dtd">
<svg version="1.1" id="Layer_1" xmlns="http://www.w3.org/2000/svg" xmlns:xlink="http://www.w3.org/1999/xlink" x="0px" y="0px"
	 width="112px" height="112px" viewBox="0 0 112 112" enable-background="new 0 0 112 112" xml:space="preserve">
<title>Page 1</title>
<desc>Created with Sketch.</desc>
<g id="Page-1">
	<g>
		<polygon id="Fill-1" fill="#006374" points="0,112 112,112 112,0 0,0 		"/>
		<polygon id="Fill-2" fill="#6CF8F1" points="33.872,82.503 36.53,82.503 36.53,76.161 34.3,76.51 34.3,74.105 39.352,73.41 
			39.352,82.503 41.423,82.503 41.423,84.854 33.872,84.854 		"/>
		<path id="Fill-3" fill="#6CF8F1" d="M42.656,82.503h1.686v-6.688h-1.686V73.41h4.406v1.803c0.881-0.966,2.124-2.01,3.806-2.01
			c1.216,0,2.126,0.47,2.693,1.229c0.156,0.208,0.257,0.413,0.36,0.653c1.064-1.045,2.337-1.882,3.781-1.882
			c1.577,0,2.669,0.574,3.239,1.642c0.309,0.577,0.465,1.308,0.465,2.146v5.513h1.685v2.351h-6.036v-2.351h1.527v-4.834
			c0-0.442-0.054-0.781-0.178-1.067c-0.236-0.556-0.702-0.812-1.35-0.812c-0.933,0-1.916,0.549-2.766,1.277v5.437h1.521v2.351
			h-5.898v-2.351h1.549v-4.834c0-0.442-0.046-0.781-0.178-1.067c-0.236-0.556-0.676-0.812-1.349-0.812
			c-0.934,0-1.915,0.549-2.766,1.277v5.437h1.498v2.351h-6.008V82.503z"/>
		<path id="Fill-5" fill="#6CF8F1" d="M67.088,78.978c0,2.09,1.268,3.235,3.003,3.235c0.96,0,1.817-0.443,2.543-1.123v-4.541
			c-0.673-0.526-1.528-0.891-2.543-0.891C68.355,75.658,67.088,76.808,67.088,78.978L67.088,78.978z M75.453,84.877
			c0,1.414-0.36,2.588-1.062,3.453c-0.93,1.146-2.406,1.75-4.246,1.75c-1.966,0-3.648-0.629-4.451-1.439
			c-0.44-0.444-0.624-0.939-0.624-1.488c0-0.811,0.6-1.596,1.527-1.596c0.884,0,1.582,0.633,1.582,1.49
			c0,0.131-0.028,0.341-0.053,0.445c0.468,0.155,1.011,0.286,1.681,0.286c1.015,0,1.817-0.313,2.305-0.989
			c0.342-0.474,0.522-1.125,0.522-1.987v-1.644c-0.858,0.858-1.765,1.461-3.265,1.461c-2.873,0-5.181-2.221-5.181-5.615
			c0-3.27,2.358-5.801,5.311-5.801c1.45,0,2.485,0.574,3.235,1.229V73.41h4.4v2.403h-1.682V84.877z"/>
		<polygon id="Fill-7" fill="#FDFDFD" points="61.875,49.907 61.875,35.914 61.875,21.923 48.007,21.923 34.141,21.923 
			34.141,35.914 48.007,35.914 48.007,49.907 34.141,49.907 34.141,63.898 48.007,63.898 61.875,63.898 75.746,63.898 
			75.746,49.907 		"/>
	</g>
</g>
</svg>
