<?xml version="1.0" encoding="UTF-8" standalone="no"?>
<svg width="181px" height="181px" viewBox="0 0 181 181" version="1.1" xmlns="http://www.w3.org/2000/svg" xmlns:xlink="http://www.w3.org/1999/xlink">
    <!-- Generator: Sketch 3.7.2 (28276) - http://www.bohemiancoding.com/sketch -->
    <title>see all</title>
    <desc>Created with Sketch.</desc>
    <defs></defs>
    <g id="Page-1" stroke="none" stroke-width="1" fill="none" fill-rule="evenodd">
        <g id="see-all">
            <circle fill="#0CA6BF" cx="90" cy="90" r="90"></circle>
            <path d="M68.6552734,95.1113281 C68.6552734,95.877608 68.5192071,96.5257135 68.2470703,97.0556641 C67.9749335,97.5856146 67.6061221,98.0188785 67.140625,98.3554688 C66.6751279,98.692059 66.1272818,98.9355461 65.4970703,99.0859375 C64.8668588,99.2363289 64.1936885,99.3115234 63.4775391,99.3115234 C62.7255822,99.3115234 62.0667346,99.2363289 61.5009766,99.0859375 C60.9352185,98.9355461 60.4392925,98.7296563 60.0131836,98.4682617 C59.5870747,98.2068672 59.2182633,97.8935565 58.9067383,97.5283203 C58.5952133,97.1630841 58.3177096,96.7656271 58.0742188,96.3359375 L59.3203125,95.5947266 C59.4635424,95.8811863 59.6497384,96.1658515 59.8789062,96.4487305 C60.1080741,96.7316095 60.3873681,96.9876291 60.7167969,97.2167969 C61.0462256,97.4459647 61.4311501,97.6321607 61.871582,97.7753906 C62.3120139,97.9186205 62.818682,97.9902344 63.3916016,97.9902344 C63.9143906,97.9902344 64.4031553,97.936524 64.8579102,97.8291016 C65.312665,97.7216792 65.7083317,97.5533866 66.0449219,97.3242188 C66.3815121,97.0950509 66.6464834,96.8032244 66.8398438,96.4487305 C67.0332041,96.0942365 67.1298828,95.6699243 67.1298828,95.1757812 C67.1298828,94.7174456 67.0546883,94.3289404 66.9042969,94.0102539 C66.7539055,93.6915674 66.5247411,93.415854 66.2167969,93.1831055 C65.9088526,92.9503569 65.5185571,92.7480477 65.0458984,92.5761719 C64.5732398,92.404296 64.0146517,92.2360034 63.3701172,92.0712891 C62.5107379,91.8492827 61.7695344,91.6326508 61.1464844,91.4213867 C60.5234344,91.2101226 60.0078145,90.9558934 59.5996094,90.6586914 C59.1914042,90.3614894 58.8888356,89.9998394 58.6918945,89.5737305 C58.4949534,89.1476216 58.3964844,88.6087272 58.3964844,87.9570312 C58.3964844,87.3411428 58.4967438,86.7789739 58.6972656,86.2705078 C58.8977875,85.7620417 59.200356,85.3269875 59.6049805,84.965332 C60.0096049,84.6036766 60.516273,84.3225921 61.125,84.1220703 C61.733727,83.9215485 62.446285,83.8212891 63.2626953,83.8212891 C63.8785838,83.8212891 64.437172,83.8839512 64.9384766,84.0092773 C65.4397812,84.1346035 65.8909485,84.3136382 66.2919922,84.5463867 C66.6930359,84.7791353 67.0511052,85.0602197 67.3662109,85.3896484 C67.6813167,85.7190772 67.9641915,86.0914693 68.2148438,86.5068359 L67.0009766,87.3232422 C66.8147777,87.000975 66.6035168,86.7055677 66.3671875,86.4370117 C66.1308582,86.1684557 65.8623062,85.937501 65.5615234,85.7441406 C65.2607407,85.5507803 64.9223652,85.4021815 64.5463867,85.2983398 C64.1704083,85.1944982 63.7496768,85.1425781 63.2841797,85.1425781 C62.7184217,85.1425781 62.224286,85.2070306 61.8017578,85.3359375 C61.3792297,85.4648444 61.0283217,85.6474598 60.7490234,85.8837891 C60.4697252,86.1201184 60.262045,86.4065738 60.1259766,86.7431641 C59.9899082,87.0797543 59.921875,87.4557271 59.921875,87.8710938 C59.921875,88.2721374 59.9845371,88.6069323 60.1098633,88.8754883 C60.2351894,89.1440443 60.44466,89.3767894 60.7382812,89.5737305 C61.0319025,89.7706716 61.4221981,89.9497062 61.9091797,90.1108398 C62.3961613,90.2719735 63.0012985,90.4420564 63.7246094,90.6210938 C64.4908892,90.8144541 65.1783824,91.0221343 65.7871094,91.2441406 C66.3958364,91.4661469 66.9132466,91.7418603 67.3393555,92.0712891 C67.7654644,92.4007178 68.0913075,92.8071265 68.3168945,93.2905273 C68.5424816,93.7739282 68.6552734,94.3808557 68.6552734,95.1113281 L68.6552734,95.1113281 Z M72.8554688,93.3710938 C72.8554688,94.1946656 72.9073888,94.9072236 73.0112305,95.5087891 C73.1150721,96.1103546 73.2905261,96.6062806 73.5375977,96.996582 C73.7846692,97.3868835 74.1123026,97.6751293 74.5205078,97.8613281 C74.928713,98.047527 75.4371714,98.140625 76.0458984,98.140625 C76.3466812,98.140625 76.6223946,98.1137698 76.8730469,98.0600586 C77.1236992,98.0063474 77.3582346,97.9168301 77.5766602,97.7915039 C77.7950857,97.6661778 78.0045563,97.5050466 78.2050781,97.3081055 C78.4056,97.1111644 78.6025381,96.8694676 78.7958984,96.5830078 L79.9023438,97.3027344 C79.7018219,97.6250016 79.4816093,97.9114571 79.2416992,98.1621094 C79.0017892,98.4127617 78.7260758,98.6240226 78.4145508,98.7958984 C78.1030258,98.9677743 77.7485371,99.10026 77.3510742,99.1933594 C76.9536113,99.2864588 76.4970729,99.3330078 75.9814453,99.3330078 C75.2366499,99.3330078 74.581383,99.225587 74.015625,99.0107422 C73.449867,98.7958974 72.9754251,98.4539411 72.5922852,97.9848633 C72.2091452,97.5157854 71.9191091,96.9088579 71.722168,96.1640625 C71.5252269,95.4192671 71.4267578,94.5169324 71.4267578,93.4570312 C71.4267578,92.5045525 71.5091138,91.6541379 71.6738281,90.9057617 C71.8385425,90.1573856 72.1017235,89.5236029 72.4633789,89.0043945 C72.8250344,88.4851862 73.2941052,88.0895196 73.8706055,87.8173828 C74.4471057,87.545246 75.150712,87.4091797 75.9814453,87.4091797 C76.7119177,87.4091797 77.3385391,87.5237619 77.8613281,87.7529297 C78.3841172,87.9820975 78.8120101,88.3133116 79.1450195,88.746582 C79.478029,89.1798524 79.7233065,89.709795 79.8808594,90.3364258 C80.0384122,90.9630565 80.1171875,91.6738242 80.1171875,92.46875 L80.1171875,93.3710938 L72.8554688,93.3710938 Z M78.7529297,92.2431641 C78.7314452,90.9755796 78.4951194,90.0463897 78.0439453,89.4555664 C77.5927712,88.8647431 76.8909553,88.5693359 75.9384766,88.5693359 C75.4443335,88.5693359 75.0164406,88.6409498 74.6547852,88.7841797 C74.2931297,88.9274096 73.9887708,89.1494126 73.7416992,89.4501953 C73.4946277,89.7509781 73.3012702,90.1323219 73.1616211,90.5942383 C73.021972,91.0561547 72.9270836,91.6057911 72.8769531,92.2431641 L78.7529297,92.2431641 Z M84.1455078,93.3710938 C84.1455078,94.1946656 84.1974279,94.9072236 84.3012695,95.5087891 C84.4051112,96.1103546 84.5805652,96.6062806 84.8276367,96.996582 C85.0747083,97.3868835 85.4023417,97.6751293 85.8105469,97.8613281 C86.218752,98.047527 86.7272105,98.140625 87.3359375,98.140625 C87.6367203,98.140625 87.9124336,98.1137698 88.1630859,98.0600586 C88.4137382,98.0063474 88.6482736,97.9168301 88.8666992,97.7915039 C89.0851248,97.6661778 89.2945954,97.5050466 89.4951172,97.3081055 C89.695639,97.1111644 89.8925772,96.8694676 90.0859375,96.5830078 L91.1923828,97.3027344 C90.991861,97.6250016 90.7716483,97.9114571 90.5317383,98.1621094 C90.2918282,98.4127617 90.0161148,98.6240226 89.7045898,98.7958984 C89.3930648,98.9677743 89.0385762,99.10026 88.6411133,99.1933594 C88.2436504,99.2864588 87.787112,99.3330078 87.2714844,99.3330078 C86.526689,99.3330078 85.8714221,99.225587 85.3056641,99.0107422 C84.739906,98.7958974 84.2654642,98.4539411 83.8823242,97.9848633 C83.4991843,97.5157854 83.2091481,96.9088579 83.012207,96.1640625 C82.8152659,95.4192671 82.7167969,94.5169324 82.7167969,93.4570312 C82.7167969,92.5045525 82.7991528,91.6541379 82.9638672,90.9057617 C83.1285816,90.1573856 83.3917625,89.5236029 83.753418,89.0043945 C84.1150734,88.4851862 84.5841443,88.0895196 85.1606445,87.8173828 C85.7371448,87.545246 86.4407511,87.4091797 87.2714844,87.4091797 C88.0019568,87.4091797 88.6285781,87.5237619 89.1513672,87.7529297 C89.6741563,87.9820975 90.1020491,88.3133116 90.4350586,88.746582 C90.7680681,89.1798524 91.0133456,89.709795 91.1708984,90.3364258 C91.3284513,90.9630565 91.4072266,91.6738242 91.4072266,92.46875 L91.4072266,93.3710938 L84.1455078,93.3710938 Z M90.0429688,92.2431641 C90.0214843,90.9755796 89.7851585,90.0463897 89.3339844,89.4555664 C88.8828102,88.8647431 88.1809943,88.5693359 87.2285156,88.5693359 C86.7343725,88.5693359 86.3064797,88.6409498 85.9448242,88.7841797 C85.5831688,88.9274096 85.2788098,89.1494126 85.0317383,89.4501953 C84.7846667,89.7509781 84.5913093,90.1323219 84.4516602,90.5942383 C84.312011,91.0561547 84.2171226,91.6057911 84.1669922,92.2431641 L90.0429688,92.2431641 Z M99.0878906,99 L104.244141,84.1328125 L106.113281,84.1328125 L111.301758,99 L109.722656,99 L108.272461,94.7138672 L102.063477,94.7138672 L100.613281,99 L99.0878906,99 Z M102.503906,93.3925781 L107.799805,93.3925781 L105.146484,85.5400391 L102.503906,93.3925781 Z M114.083984,99 L114.083984,83.0048828 L115.469727,83.0048828 L115.469727,99 L114.083984,99 Z M119.648438,99 L119.648438,83.0048828 L121.03418,83.0048828 L121.03418,99 L119.648438,99 Z" id="See-All-Copy" fill="#FFFFFF"></path>
        </g>
    </g>
</svg>